<svg xmlns="http://www.w3.org/2000/svg" viewBox="-510 -443.0127018922193 4770 4783.139720814413"><polygon fill="#5b6748" points="500,0 250.00000000000006,433.0127018922193 -249.9999999999999,433.01270189221935 -500,6.123233995736766e-14 -250.00000000000023,-433.01270189221924 250.00000000000006,-433.0127018922193" stroke="black" stroke-width="2" /><text alignment-baseline="middle" fill="black" font-size="83.33333333333333" text-anchor="middle" x="0" y="-333.3333333333333">0000</text><polygon fill="#5b6748" points="500,866.0254037844386 250.00000000000006,1299.0381056766578 -249.9999999999999,1299.038105676658 -500,866.0254037844387 -250.00000000000023,433.01270189221935 250.00000000000006,433.0127018922193" stroke="black" stroke-width="2" /><text alignment-baseline="middle" fill="black" font-size="83.33333333333333" text-anchor="middle" x="0" y="532.6920704511053">0001</text><polygon fill="#5b6748" points="500,1732.0508075688772 250.00000000000006,2165.0635094610966 -249.9999999999999,2165.0635094610966 -500,1732.0508075688772 -250.00000000000023,1299.038105676658 250.00000000000006,1299.0381056766578" stroke="black" stroke-width="2" /><text alignment-baseline="middle" fill="black" font-size="83.33333333333333" text-anchor="middle" x="0" y="1398.717474235544">0002</text><polygon fill="#5b6748" points="500,2598.076211353316 250.00000000000006,3031.0889132455354 -249.9999999999999,3031.0889132455354 -500,2598.076211353316 -250.00000000000023,2165.0635094610966 250.00000000000006,2165.0635094610966" stroke="black" stroke-width="2" /><text alignment-baseline="middle" fill="black" font-size="83.33333333333333" text-anchor="middle" x="0" y="2264.7428780199825">0003</text><polygon fill="#5ea48b" points="500,3464.1016151377544 250.00000000000006,3897.114317029974 -249.9999999999999,3897.114317029974 -500,3464.1016151377544 -250.00000000000023,3031.088913245535 250.00000000000006,3031.088913245535" stroke="black" stroke-width="2" /><text alignment-baseline="middle" fill="black" font-size="83.33333333333333" text-anchor="middle" x="0" y="3130.768281804421">0004</text><polygon fill="#5b6748" points="1250,433.0127018922193 1000,866.0254037844386 500.0000000000001,866.0254037844386 250,433.01270189221935 499.9999999999998,5.684341886080802e-14 1000,0" stroke="black" stroke-width="2" /><text alignment-baseline="middle" fill="black" font-size="83.33333333333333" text-anchor="middle" x="750" y="99.67936855888598">0100</text><polygon fill="#5b6748" points="1250,1299.038105676658 1000,1732.0508075688772 500.0000000000001,1732.0508075688774 250,1299.038105676658 499.9999999999998,866.0254037844388 1000,866.0254037844387" stroke="black" stroke-width="2" /><text alignment-baseline="middle" fill="black" font-size="83.33333333333333" text-anchor="middle" x="750" y="965.7047723433247">0101</text><polygon fill="#dcd575" points="1250,2165.0635094610966 1000,2598.076211353316 500.0000000000001,2598.076211353316 250,2165.0635094610966 499.9999999999998,1732.0508075688774 1000,1732.0508075688772" stroke="black" stroke-width="2" /><text alignment-baseline="middle" fill="black" font-size="83.33333333333333" text-anchor="middle" x="750" y="1831.7301761277633">0102</text><polygon fill="#91bb99" points="1250,3031.0889132455354 1000,3464.101615137755 500.0000000000001,3464.101615137755 250,3031.0889132455354 499.9999999999998,2598.076211353316 1000,2598.076211353316" stroke="black" stroke-width="2" /><text alignment-baseline="middle" fill="black" font-size="83.33333333333333" text-anchor="middle" x="750" y="2697.755579912202">0103</text><polygon fill="#5ea48b" points="1250,3897.114317029974 1000,4330.127018922193 500.0000000000001,4330.127018922193 250,3897.114317029974 499.9999999999998,3464.1016151377544 1000,3464.1016151377544" stroke="black" stroke-width="2" /><text alignment-baseline="middle" fill="black" font-size="83.33333333333333" text-anchor="middle" x="750" y="3563.7809836966403">0104</text><polygon fill="#5b6748" points="2000,0 1750,433.0127018922193 1250,433.01270189221935 1000,6.123233995736766e-14 1249.9999999999998,-433.01270189221924 1750,-433.0127018922193" stroke="black" stroke-width="2" /><text alignment-baseline="middle" fill="black" font-size="83.33333333333333" text-anchor="middle" x="1500" y="-333.3333333333333">0200</text><polygon fill="#7ad317" points="2000,866.0254037844386 1750,1299.0381056766578 1250,1299.038105676658 1000,866.0254037844387 1249.9999999999998,433.01270189221935 1750,433.0127018922193" stroke="black" stroke-width="2" /><text alignment-baseline="middle" fill="black" font-size="83.33333333333333" text-anchor="middle" x="1500" y="532.6920704511053">0201</text><polygon fill="#7ad317" points="2000,1732.0508075688772 1750,2165.0635094610966 1250,2165.0635094610966 1000,1732.0508075688772 1249.9999999999998,1299.038105676658 1750,1299.0381056766578" stroke="black" stroke-width="2" /><text alignment-baseline="middle" fill="black" font-size="83.33333333333333" text-anchor="middle" x="1500" y="1398.717474235544">0202</text><polygon fill="#dcd575" points="2000,2598.076211353316 1750,3031.0889132455354 1250,3031.0889132455354 1000,2598.076211353316 1249.9999999999998,2165.0635094610966 1750,2165.0635094610966" stroke="black" stroke-width="2" /><text alignment-baseline="middle" fill="black" font-size="83.33333333333333" text-anchor="middle" x="1500" y="2264.7428780199825">0203</text><polygon fill="#91bb99" points="2000,3464.1016151377544 1750,3897.114317029974 1250,3897.114317029974 1000,3464.1016151377544 1249.9999999999998,3031.088913245535 1750,3031.088913245535" stroke="black" stroke-width="2" /><text alignment-baseline="middle" fill="black" font-size="83.33333333333333" text-anchor="middle" x="1500" y="3130.768281804421">0204</text><polygon fill="#695010" points="2750,433.0127018922194 2500,866.0254037844387 2000,866.0254037844388 1750,433.01270189221947 1999.9999999999998,1.7053025658242404e-13 2500,1.1368683772161603e-13" stroke="black" stroke-width="2" /><text alignment-baseline="middle" fill="black" font-size="83.33333333333333" text-anchor="middle" x="2250" y="99.6793685588861">0300</text><polygon fill="#7ad317" points="2750,1299.038105676658 2500,1732.0508075688772 2000,1732.0508075688774 1750,1299.038105676658 1999.9999999999998,866.0254037844388 2500,866.0254037844387" stroke="black" stroke-width="2" /><text alignment-baseline="middle" fill="black" font-size="83.33333333333333" text-anchor="middle" x="2250" y="965.7047723433247">0301</text><polygon fill="#7ad317" points="2750,2165.0635094610966 2500,2598.076211353316 2000,2598.076211353316 1750,2165.0635094610966 1999.9999999999998,1732.0508075688774 2500,1732.0508075688772" stroke="black" stroke-width="2" /><text alignment-baseline="middle" fill="black" font-size="83.33333333333333" text-anchor="middle" x="2250" y="1831.7301761277633">0302</text><polygon fill="#dcd575" points="2750,3031.0889132455354 2500,3464.101615137755 2000,3464.101615137755 1750,3031.0889132455354 1999.9999999999998,2598.076211353316 2500,2598.076211353316" stroke="black" stroke-width="2" /><text alignment-baseline="middle" fill="black" font-size="83.33333333333333" text-anchor="middle" x="2250" y="2697.755579912202">0303</text><polygon fill="#5ea48b" points="2750,3897.114317029974 2500,4330.127018922193 2000,4330.127018922193 1750,3897.114317029974 1999.9999999999998,3464.1016151377544 2500,3464.1016151377544" stroke="black" stroke-width="2" /><text alignment-baseline="middle" fill="black" font-size="83.33333333333333" text-anchor="middle" x="2250" y="3563.7809836966403">0304</text><polygon fill="#695010" points="3500,0 3250,433.0127018922193 2750,433.01270189221935 2500,6.123233995736766e-14 2750,-433.01270189221924 3250,-433.0127018922193" stroke="black" stroke-width="2" /><text alignment-baseline="middle" fill="black" font-size="83.33333333333333" text-anchor="middle" x="3000" y="-333.3333333333333">0400</text><polygon fill="#7ad317" points="3500,866.0254037844386 3250,1299.0381056766578 2750,1299.038105676658 2500,866.0254037844387 2750,433.01270189221935 3250,433.0127018922193" stroke="black" stroke-width="2" /><text alignment-baseline="middle" fill="black" font-size="83.33333333333333" text-anchor="middle" x="3000" y="532.6920704511053">0401</text><polygon fill="#417505" points="3500,1732.0508075688772 3250,2165.0635094610966 2750,2165.0635094610966 2500,1732.0508075688772 2750,1299.038105676658 3250,1299.0381056766578" stroke="black" stroke-width="2" /><text alignment-baseline="middle" fill="black" font-size="83.33333333333333" text-anchor="middle" x="3000" y="1398.717474235544">0402</text><polygon fill="#91bb99" points="3500,2598.076211353316 3250,3031.0889132455354 2750,3031.0889132455354 2500,2598.076211353316 2750,2165.0635094610966 3250,2165.0635094610966" stroke="black" stroke-width="2" /><text alignment-baseline="middle" fill="black" font-size="83.33333333333333" text-anchor="middle" x="3000" y="2264.7428780199825">0403</text><polygon fill="#5ea48b" points="3500,3464.1016151377544 3250,3897.114317029974 2750,3897.114317029974 2500,3464.1016151377544 2750,3031.088913245535 3250,3031.088913245535" stroke="black" stroke-width="2" /><text alignment-baseline="middle" fill="black" font-size="83.33333333333333" text-anchor="middle" x="3000" y="3130.768281804421">0404</text><polygon fill="#5f5c24" points="4250,433.0127018922192 4000,866.0254037844385 3500,866.0254037844386 3250,433.01270189221924 3500,-5.684341886080802e-14 4000,-1.1368683772161603e-13" stroke="black" stroke-width="2" /><text alignment-baseline="middle" fill="black" font-size="83.33333333333333" text-anchor="middle" x="3750" y="99.67936855888587">0500</text><polygon fill="#5f5c24" points="4250,1299.0381056766578 4000,1732.0508075688772 3500,1732.0508075688772 3250,1299.0381056766578 3500,866.0254037844386 4000,866.0254037844385" stroke="black" stroke-width="2" /><text alignment-baseline="middle" fill="black" font-size="83.33333333333333" text-anchor="middle" x="3750" y="965.7047723433245">0501</text><polygon fill="#417505" points="4250,2165.0635094610966 4000,2598.076211353316 3500,2598.076211353316 3250,2165.0635094610966 3500,1732.0508075688774 4000,1732.0508075688772" stroke="black" stroke-width="2" /><text alignment-baseline="middle" fill="black" font-size="83.33333333333333" text-anchor="middle" x="3750" y="1831.7301761277633">0502</text><polygon fill="#dcd575" points="4250,3031.088913245535 4000,3464.1016151377544 3500,3464.1016151377544 3250,3031.088913245535 3500,2598.0762113533156 4000,2598.0762113533156" stroke="black" stroke-width="2" /><text alignment-baseline="middle" fill="black" font-size="83.33333333333333" text-anchor="middle" x="3750" y="2697.7555799122015">0503</text><polygon fill="#5ea48b" points="4250,3897.114317029974 4000,4330.127018922193 3500,4330.127018922193 3250,3897.114317029974 3500,3464.1016151377544 4000,3464.1016151377544" stroke="black" stroke-width="2" /><text alignment-baseline="middle" fill="black" font-size="83.33333333333333" text-anchor="middle" x="3750" y="3563.7809836966403">0504</text></svg>