<svg xmlns="http://www.w3.org/2000/svg" viewBox="-510 -443.0127018922193 2520 4783.139720814413"><polygon fill="#0000ff" points="500,0 250.00000000000006,433.0127018922193 -249.9999999999999,433.01270189221935 -500,6.123233995736766e-14 -250.00000000000023,-433.01270189221924 250.00000000000006,-433.0127018922193" stroke="black" stroke-width="2" /><polygon fill="#cccccc" points="500,866.0254037844386 250.00000000000006,1299.0381056766578 -249.9999999999999,1299.038105676658 -500,866.0254037844387 -250.00000000000023,433.01270189221935 250.00000000000006,433.0127018922193" stroke="black" stroke-width="2" /><polygon fill="#0000ff" points="1250,433.0127018922193 1000,866.0254037844386 500.0000000000001,866.0254037844386 250,433.01270189221935 499.9999999999998,5.684341886080802e-14 1000,0" stroke="black" stroke-width="2" /><polygon fill="#cccccc" points="1250,1299.038105676658 1000,1732.0508075688772 500.0000000000001,1732.0508075688774 250,1299.038105676658 499.9999999999998,866.0254037844388 1000,866.0254037844387" stroke="black" stroke-width="2" /><polygon fill="#cccccc" points="1250,2165.0635094610966 1000,2598.076211353316 500.0000000000001,2598.076211353316 250,2165.0635094610966 499.9999999999998,1732.0508075688774 1000,1732.0508075688772" stroke="black" stroke-width="2" /><polygon fill="#cccccc" points="1250,3031.0889132455354 1000,3464.101615137755 500.0000000000001,3464.101615137755 250,3031.0889132455354 499.9999999999998,2598.076211353316 1000,2598.076211353316" stroke="black" stroke-width="2" /><polygon fill="#cccccc" points="1250,3897.114317029974 1000,4330.127018922193 500.0000000000001,4330.127018922193 250,3897.114317029974 499.9999999999998,3464.1016151377544 1000,3464.1016151377544" stroke="black" stroke-width="2" /><polygon fill="#cccccc" points="2000,2598.076211353316 1750,3031.0889132455354 1250,3031.0889132455354 1000,2598.076211353316 1249.9999999999998,2165.0635094610966 1750,2165.0635094610966" stroke="black" stroke-width="2" /></svg>